<svg width="11" height="11" viewBox="0 0 11 11" fill="none" xmlns="http://www.w3.org/2000/svg">
<path d="M7.19999 0.899994C6.92384 0.899994 6.69999 1.12385 6.69999 1.39999C6.69999 1.67614 6.92384 1.89999 7.19999 1.89999H8.79999C9.4075 1.89999 9.89999 2.39248 9.89999 2.99999V5.39995C9.89999 6.00746 9.4075 6.49995 8.79999 6.49995H2.00714L4.35354 4.15355C4.5488 3.95828 4.5488 3.6417 4.35354 3.44644C4.15828 3.25118 3.8417 3.25118 3.64643 3.44644L0.446434 6.64644C0.251172 6.8417 0.251172 7.15828 0.446434 7.35355L3.64643 10.5535C3.8417 10.7488 4.15828 10.7488 4.35354 10.5535C4.5488 10.3583 4.5488 10.0417 4.35354 9.84644L2.00705 7.49995H8.79999C9.95978 7.49995 10.9 6.55975 10.9 5.39995V2.99999C10.9 1.84019 9.95978 0.899994 8.79999 0.899994H7.19999Z" fill="white" fill-opacity="0.95"/>
</svg>
