<svg width="10" height="13" viewBox="0 0 10 13" fill="none" xmlns="http://www.w3.org/2000/svg">
<path d="M0.999976 4.6V10.2C0.999976 11.5255 2.07449 12.6 3.39998 12.6H6.59998C7.92546 12.6 8.99998 11.5255 8.99998 10.2V4.6H7.99998V10.2C7.99998 10.9732 7.37317 11.6 6.59998 11.6H3.39998C2.62678 11.6 1.99998 10.9732 1.99998 10.2V4.6H0.999976Z" fill="#020C12" fill-opacity="0.85"/>
<path fill-rule="evenodd" clip-rule="evenodd" d="M3.79998 5.7C4.07612 5.7 4.29998 5.92386 4.29998 6.2V9.4C4.29998 9.67614 4.07612 9.9 3.79998 9.9C3.52383 9.9 3.29998 9.67614 3.29998 9.4V6.2C3.29998 5.92386 3.52383 5.7 3.79998 5.7ZM6.19998 5.7C6.47612 5.7 6.69998 5.92386 6.69998 6.2V9.4C6.69998 9.67614 6.47612 9.9 6.19998 9.9C5.92383 9.9 5.69998 9.67614 5.69998 9.4V6.2C5.69998 5.92386 5.92383 5.7 6.19998 5.7Z" fill="#020C12" fill-opacity="0.85"/>
<path fill-rule="evenodd" clip-rule="evenodd" d="M3.23916 1.18172C3.33932 0.781068 3.69931 0.5 4.11229 0.5H5.88766C6.30065 0.5 6.66063 0.781068 6.76079 1.18172L7.08505 2.47873C7.08682 2.48582 7.08843 2.49291 7.08988 2.5H9.39997C9.67612 2.5 9.89997 2.72386 9.89997 3C9.89997 3.27614 9.67612 3.5 9.39997 3.5H0.599976C0.323833 3.5 0.0999756 3.27614 0.0999756 3C0.0999756 2.72386 0.323833 2.5 0.599976 2.5H2.91007C2.91152 2.49291 2.91313 2.48582 2.9149 2.47873L3.23916 1.18172ZM3.94036 2.5H6.05959L5.80959 1.5H4.19036L3.94036 2.5Z" fill="#020C12" fill-opacity="0.85"/>
</svg>
